<svg width="26" height="23" viewBox="0 0 26 23" fill="none" xmlns="http://www.w3.org/2000/svg">
<path d="M25.3438 11.448L23.4837 1.47926C23.4382 1.23626 23.3436 1.00514 23.2055 0.800091C23.0674 0.595043 22.8888 0.42041 22.6808 0.28693C22.4727 0.153449 22.2395 0.0639435 21.9956 0.0239168C21.7516 -0.0161099 21.5021 -0.00581152 21.2622 0.0541787L21.2271 0.064374L15.2776 1.8191H10.1006L4.15112 0.070038L4.116 0.0598426C3.87618 -0.000147548 3.62663 -0.0104459 3.38268 0.0295808C3.13874 0.0696075 2.90556 0.159113 2.69749 0.292594C2.48941 0.426074 2.31085 0.600707 2.17276 0.805755C2.03468 1.0108 1.94 1.24193 1.89455 1.48492L0.034475 11.448C-0.0450676 11.847 0.0139759 12.2612 0.201839 12.6221C0.389702 12.983 0.695129 13.269 1.0676 13.4327C1.30614 13.5421 1.56529 13.5993 1.82772 13.6004C2.14181 13.6002 2.4501 13.5157 2.72037 13.3557V18.1316C2.72037 19.3334 3.19777 20.4859 4.04755 21.3357C4.89732 22.1855 6.04986 22.6629 7.25162 22.6629H18.1266C19.3284 22.6629 20.4809 22.1855 21.3307 21.3357C22.1805 20.4859 22.6579 19.3334 22.6579 18.1316V13.3568C22.9279 13.5165 23.2357 13.601 23.5494 13.6015C23.8121 13.6007 24.0716 13.544 24.3106 13.435C24.6836 13.2712 24.9893 12.9848 25.1772 12.6235C25.3651 12.2621 25.4239 11.8474 25.3438 11.448ZM1.81412 11.7879L3.67533 1.8191L8.44108 3.22039L1.81412 11.7879ZM18.1266 20.8504H13.5954V19.4128L15.1428 17.8665C15.3128 17.6965 15.4084 17.4658 15.4084 17.2254C15.4084 16.9849 15.3128 16.7542 15.1428 16.5842C14.9727 16.4141 14.7421 16.3186 14.5016 16.3186C14.2611 16.3186 14.0305 16.4141 13.8605 16.5842L12.6891 17.7566L11.5178 16.5842C11.3477 16.4141 11.1171 16.3186 10.8766 16.3186C10.6361 16.3186 10.4055 16.4141 10.2355 16.5842C10.0654 16.7542 9.96987 16.9849 9.96987 17.2254C9.96987 17.4658 10.0654 17.6965 10.2355 17.8665L11.7829 19.4128V20.8504H7.25162C6.53057 20.8504 5.83904 20.5639 5.32918 20.054C4.81931 19.5442 4.53287 18.8527 4.53287 18.1316V11.2339L10.4144 3.6316H14.9627L20.8454 11.2339V18.1316C20.8454 18.8527 20.5589 19.5442 20.0491 20.054C19.5392 20.5639 18.8477 20.8504 18.1266 20.8504ZM23.5641 11.7879L16.9372 3.22039L21.7029 1.8191L23.5641 11.7879Z" fill="#667085"/>
<path d="M9.41444 14.3315C8.30987 14.3315 6.36655 12.6808 7.41444 12.3315C7.78492 12.208 7.96722 12.1825 8.41444 12.3315C8.86165 12.4806 8.86215 12.8315 9.41444 12.8315C9.96672 12.8315 9.89049 12.5062 10.4144 12.3315C10.7849 12.208 11.044 12.208 11.4144 12.3315C12.4623 12.6808 10.519 14.3315 9.41444 14.3315Z" fill="#667085"/>
<path d="M16.1266 14.3315C15.0221 14.3315 13.0787 12.6808 14.1266 12.3315C14.4971 12.208 14.6794 12.1825 15.1266 12.3315C15.5738 12.4806 15.5743 12.8315 16.1266 12.8315C16.6789 12.8315 16.6027 12.5062 17.1266 12.3315C17.4971 12.208 17.7561 12.208 18.1266 12.3315C19.1745 12.6808 17.2312 14.3315 16.1266 14.3315Z" fill="#667085"/>
</svg>
