<svg width="32" height="32" viewBox="0 0 32 32" fill="none" xmlns="http://www.w3.org/2000/svg">
<path d="M16 7.11133C17.7581 7.11133 19.4767 7.63265 20.9384 8.60938C22.4002 9.5861 23.5395 10.9744 24.2123 12.5986C24.8851 14.2228 25.0611 16.0101 24.7181 17.7344C24.3751 19.4586 23.5286 21.0425 22.2854 22.2856C21.0423 23.5287 19.4584 24.3753 17.7342 24.7183C16.0099 25.0613 14.2226 24.8853 12.5984 24.2125C10.9742 23.5397 9.58591 22.4004 8.60919 20.9386C7.63246 19.4768 7.11114 17.7583 7.11114 16.0002C7.11363 13.6435 8.05093 11.384 9.71738 9.71757C11.3838 8.05112 13.6433 7.11382 16 7.11133ZM8.47866 16.0002C8.47791 16.9652 8.66365 17.9211 9.02567 18.8156L12.8462 16.466C13.0086 16.3658 13.1903 16.3008 13.3795 16.2754L15.3299 16.0122C15.5987 15.9771 15.8718 16.0222 16.1151 16.1417C16.3584 16.2612 16.5609 16.4498 16.6975 16.684H17.4428L17.7675 16.0122C17.8573 15.8251 17.9887 15.6611 18.1517 15.5326C18.3147 15.4042 18.5049 15.3148 18.7077 15.2712L19.3915 15.1233L18.7231 13.9489H17.2949C17.0638 13.9485 16.8365 13.8897 16.6342 13.778L15.5872 13.2002C15.4952 13.1489 15.4092 13.0876 15.3308 13.0173L13.0308 10.937C12.8002 10.7303 12.6469 10.4512 12.5963 10.1457C12.5456 9.84027 12.6006 9.52665 12.7522 9.25663L12.7829 9.20107C11.4959 9.81132 10.4084 10.7741 9.64651 11.9775C8.88463 13.181 8.47968 14.5759 8.47866 16.0002ZM14.6915 8.59338L13.9487 9.92329L16.2487 12.0036L17.2949 12.5814H18.7231C18.9635 12.5811 19.1997 12.6441 19.408 12.7641C19.6163 12.8842 19.7892 13.057 19.9094 13.2652L20.6556 14.5669L21.5231 12.2558L20.5881 10.0447C19.7604 9.40517 18.8083 8.9456 17.7928 8.69539C16.7772 8.44518 15.7206 8.40986 14.6906 8.59167L14.6915 8.59338ZM23.5214 16.0002C23.5225 14.8823 23.2731 13.7783 22.7915 12.7694L21.8222 15.3566C21.7415 15.5708 21.6082 15.7613 21.4347 15.9107C21.2612 16.06 21.0529 16.1634 20.8291 16.2113L18.9975 16.6053L18.6718 17.2823C18.5588 17.5125 18.3837 17.7065 18.1662 17.8425C17.9487 17.9784 17.6975 18.0508 17.4411 18.0515H17.3146L17.9325 19.4387C18.0414 19.6829 18.0763 19.9538 18.0328 20.2176C17.9894 20.4815 17.8695 20.7268 17.6881 20.9233L17.6761 20.9353L16 22.6618L16.1658 23.5165C18.1301 23.4707 19.9987 22.6592 21.3729 21.2549C22.7471 19.8507 23.5181 17.965 23.5214 16.0002ZM14.7539 23.4173L14.6573 22.9207C14.6176 22.7098 14.6278 22.4924 14.6872 22.2861C14.7466 22.0798 14.8534 21.8903 14.9992 21.7327C15.0034 21.7289 15.0074 21.7249 15.0111 21.7207L16.6838 19.9951L15.5128 17.3677L13.5624 17.631L9.65473 20.0344C10.2209 20.9235 10.9672 21.6839 11.8455 22.2667C12.7238 22.8494 13.7146 23.2413 14.7539 23.4173Z" fill="#67A6B0"/>
</svg>
