<svg width="7" height="7" viewBox="0 0 7 7" fill="none" xmlns="http://www.w3.org/2000/svg">
<path d="M1.04744 2.51481L3.02661 4.49397C3.04499 4.51238 3.06682 4.52697 3.09085 4.53693C3.11487 4.54689 3.14063 4.55202 3.16664 4.55202C3.19265 4.55202 3.2184 4.54689 3.24243 4.53693C3.26645 4.52697 3.28828 4.51238 3.30666 4.49397L5.28583 2.51481C5.32297 2.47767 5.34383 2.4273 5.34383 2.37478C5.34383 2.32226 5.32297 2.2719 5.28583 2.23476C5.24869 2.19762 5.19832 2.17676 5.1458 2.17676C5.09328 2.17676 5.04291 2.19762 5.00578 2.23476L3.16664 4.07414L1.3275 2.23476C1.30911 2.21637 1.28728 2.20178 1.26325 2.19183C1.23923 2.18188 1.21348 2.17676 1.18747 2.17676C1.16147 2.17676 1.13571 2.18188 1.11169 2.19183C1.08766 2.20178 1.06583 2.21637 1.04744 2.23476C1.02906 2.25315 1.01447 2.27498 1.00452 2.299C0.994566 2.32303 0.989444 2.34878 0.989444 2.37478C0.989444 2.40079 0.994566 2.42654 1.00452 2.45057C1.01447 2.47459 1.02906 2.49642 1.04744 2.51481Z" fill="#67A6B0"/>
</svg>
