<svg width="24" height="24" viewBox="0 0 24 24" fill="none" xmlns="http://www.w3.org/2000/svg">
<path d="M5.31804 14.8532C5.7641 14.0848 6.42716 11.9108 6.42716 9.07128C6.42716 7.36602 7.10458 5.73061 8.31038 4.52481C9.51617 3.31901 11.1516 2.6416 12.8568 2.6416C14.5621 2.6416 16.1975 3.31901 17.4033 4.52481C18.6091 5.73061 19.2865 7.36602 19.2865 9.07128C19.2865 11.9116 19.9504 14.0848 20.3965 14.8532C20.5104 15.0485 20.5707 15.2704 20.5715 15.4966C20.5723 15.7227 20.5134 15.945 20.4009 16.1411C20.2883 16.3372 20.126 16.5002 19.9304 16.6136C19.7347 16.7269 19.5127 16.7867 19.2865 16.7869H16.0066C15.8582 17.5128 15.4637 18.1651 14.8898 18.6336C14.3159 19.1022 13.5977 19.3581 12.8568 19.3581C12.116 19.3581 11.3978 19.1022 10.8239 18.6336C10.25 18.1651 9.85545 17.5128 9.70711 16.7869H6.42716C6.20111 16.7866 5.97913 16.7267 5.7836 16.6133C5.58807 16.4998 5.42589 16.3369 5.31342 16.1408C5.20095 15.9447 5.14216 15.7224 5.14297 15.4964C5.14378 15.2703 5.20417 15.0485 5.31804 14.8532ZM12.8568 18.0728C13.2556 18.0727 13.6446 17.949 13.9701 17.7187C14.2957 17.4884 14.5419 17.1629 14.6748 16.7869H11.0389C11.1718 17.1629 11.418 17.4884 11.7435 17.7187C12.0691 17.949 12.4581 18.0727 12.8568 18.0728ZM19.2865 15.501C18.6677 14.4369 18.0006 11.9711 18.0006 9.07128C18.0006 7.70708 17.4587 6.39875 16.494 5.43411C15.5294 4.46947 14.2211 3.92754 12.8568 3.92754C11.4926 3.92754 10.1843 4.46947 9.21967 5.43411C8.25503 6.39875 7.7131 7.70708 7.7131 9.07128C7.7131 11.9687 7.04763 14.4344 6.42716 15.501H19.2865Z" fill="#67A6B0"/>
</svg>
