<svg width="1515" height="1110" viewBox="0 0 1515 1110" fill="none" xmlns="http://www.w3.org/2000/svg">
<rect x="75" y="38" width="1440" height="1024" fill="white"/>
<g filter="url(#filter0_f_1496_1102)">
<circle cx="446.378" cy="494.565" r="87.8253" fill="#67A6B0"/>
</g>
<g opacity="0.45" filter="url(#filter1_f_1496_1102)">
<circle cx="287.825" cy="287.825" r="87.8253" fill="#ECAD14"/>
</g>
<path d="M1106.06 539.705C1096.24 551.883 1090.26 566.7 1088.86 582.282C1087.47 597.864 1090.73 613.512 1098.23 627.246C1105.73 640.981 1117.13 652.185 1131 659.443C1144.86 666.7 1160.56 669.684 1176.12 668.018C1191.68 666.352 1206.39 660.111 1218.39 650.083C1230.4 640.055 1239.16 626.692 1243.57 611.682C1247.97 596.672 1247.83 580.691 1243.15 565.759C1238.48 550.827 1229.48 537.614 1217.3 527.792C1200.96 514.621 1180.06 508.477 1159.2 510.711C1138.34 512.945 1119.22 523.375 1106.06 539.705ZM1194.06 610.648C1189.85 615.867 1184.19 619.721 1177.79 621.722C1171.39 623.722 1164.54 623.781 1158.11 621.889C1151.68 619.997 1145.95 616.241 1141.64 611.094C1137.34 605.947 1134.67 599.642 1133.95 592.975C1133.23 586.308 1134.51 579.579 1137.62 573.639C1140.72 567.699 1145.52 562.815 1151.41 559.604C1157.29 556.393 1164 554.999 1170.68 555.6C1177.36 556.2 1183.71 558.767 1188.93 562.977C1195.93 568.621 1200.41 576.815 1201.37 585.755C1202.33 594.695 1199.7 603.649 1194.06 610.648ZM919.48 897.228C907.296 887.406 892.474 881.416 876.89 880.015C861.305 878.614 845.657 881.866 831.925 889.358C818.193 896.85 806.993 908.247 799.741 922.107C792.49 935.967 789.512 951.668 791.186 967.224C792.86 982.781 799.109 997.493 809.143 1009.5C819.178 1021.51 832.547 1030.28 847.56 1034.69C862.574 1039.1 878.557 1038.97 893.488 1034.3C908.42 1029.63 921.63 1020.64 931.447 1008.46C944.611 992.131 950.746 971.238 948.501 950.378C946.257 929.517 935.818 910.399 919.48 897.228ZM896.245 980.084C892.038 985.303 886.376 989.157 879.977 991.158C873.578 993.159 866.728 993.217 860.294 991.325C853.859 989.433 848.13 985.677 843.829 980.53C839.529 975.383 836.851 969.078 836.133 962.411C835.416 955.744 836.692 949.015 839.8 943.075C842.907 937.135 847.707 932.251 853.593 929.04C859.478 925.829 866.184 924.435 872.863 925.036C879.543 925.636 885.895 928.203 891.116 932.413C898.118 938.057 902.592 946.251 903.554 955.191C904.516 964.131 901.887 973.085 896.245 980.084ZM910.932 817.776C920.749 805.598 926.733 790.781 928.126 775.199C929.52 759.617 926.261 743.969 918.761 730.234C911.261 716.5 899.858 705.295 885.993 698.038C872.128 690.781 856.424 687.796 840.867 689.462C825.31 691.128 810.599 697.37 798.593 707.398C786.588 717.425 777.828 730.789 773.421 745.799C769.013 760.808 769.157 776.79 773.834 791.722C778.51 806.654 787.509 819.867 799.693 829.689C816.031 842.859 836.93 849.003 857.791 846.769C878.652 844.535 897.768 834.106 910.932 817.776ZM822.928 746.833C827.135 741.614 832.796 737.76 839.196 735.759C845.595 733.758 852.445 733.7 858.879 735.592C865.313 737.483 871.043 741.24 875.343 746.387C879.644 751.533 882.322 757.839 883.039 764.506C883.757 771.173 882.481 777.902 879.373 783.842C876.265 789.782 871.465 794.666 865.58 797.877C859.695 801.088 852.988 802.482 846.309 801.881C839.63 801.281 833.278 798.714 828.056 794.504C821.054 788.86 816.58 780.666 815.619 771.726C814.657 762.786 817.286 753.832 822.928 746.833ZM1038.57 659.446C1048.38 647.268 1054.37 632.452 1055.76 616.869C1057.15 601.287 1053.9 585.639 1046.4 571.905C1038.9 558.17 1027.49 546.966 1013.63 539.708C999.763 532.451 984.059 529.467 968.502 531.133C952.945 532.799 938.234 539.04 926.229 549.068C914.223 559.096 905.463 572.459 901.056 587.469C896.649 602.479 896.792 618.46 901.469 633.392C906.145 648.325 915.144 661.537 927.328 671.359C943.666 684.53 964.565 690.674 985.426 688.44C1006.29 686.206 1025.4 675.777 1038.57 659.446ZM950.563 588.503C954.77 583.284 960.432 579.43 966.831 577.429C973.23 575.429 980.08 575.37 986.514 577.262C992.948 579.154 998.678 582.91 1002.98 588.057C1007.28 593.204 1009.96 599.509 1010.67 606.176C1011.39 612.843 1010.12 619.572 1007.01 625.512C1003.9 631.452 999.1 636.336 993.215 639.547C987.33 642.758 980.624 644.152 973.944 643.551C967.265 642.951 960.913 640.384 955.692 636.174C948.69 630.53 944.216 622.336 943.254 613.396C942.292 604.456 944.921 595.502 950.563 588.503ZM1213.45 716.545C1201.31 721.505 1188.32 724.023 1175.21 723.955C1162.09 723.887 1149.12 721.235 1137.03 716.149C1112.19 705.775 1084.66 703.74 1058.57 710.351C1032.48 716.962 1009.25 731.861 992.363 752.81C975.475 773.759 965.846 799.625 964.922 826.522C963.999 853.419 971.83 879.893 987.24 901.967C1002.43 923.532 1008.44 950.237 1003.97 976.223C999.414 1000.94 1003.23 1026.47 1014.81 1048.79C1026.4 1071.1 1045.09 1088.91 1067.93 1099.42C1090.77 1109.92 1116.46 1112.52 1140.93 1106.79C1165.41 1101.06 1187.27 1087.33 1203.05 1067.78C1212.54 1056.08 1219.56 1042.58 1223.68 1028.1C1237.22 982.235 1268.37 943.601 1310.31 920.633C1336.19 907.099 1355.81 884.072 1365.08 856.38C1374.34 828.687 1372.52 798.48 1359.99 772.091C1347.47 745.701 1325.22 725.179 1297.9 714.827C1270.59 704.475 1240.31 705.08 1213.45 716.545ZM1309.67 863.48C1303.92 870.628 1296.77 876.533 1288.67 880.838C1236.13 909.571 1197.13 957.955 1180.2 1015.4C1175.5 1032.27 1164.45 1046.66 1149.37 1055.56C1134.29 1064.46 1116.35 1067.19 1099.3 1063.15C1082.25 1059.12 1067.43 1048.65 1057.92 1033.94C1048.41 1019.22 1044.97 1001.4 1048.31 984.213C1051.6 965.484 1051.16 946.289 1047.02 927.726C1042.88 909.163 1035.13 891.596 1024.19 876.029C1014.38 861.982 1009.39 845.13 1009.97 828.007C1010.55 810.884 1016.68 794.417 1027.43 781.081C1038.18 767.745 1052.97 758.261 1069.58 754.057C1086.19 749.852 1103.72 751.154 1119.53 757.765C1137.1 765.152 1155.95 769.001 1175.01 769.091C1194.06 769.181 1212.95 765.51 1230.58 758.29C1244.51 752.402 1260.01 751.343 1274.62 755.28C1289.23 759.217 1302.11 767.925 1311.2 780.018C1320.29 792.111 1325.08 806.895 1324.8 822.019C1324.53 837.142 1319.2 851.736 1309.67 863.48Z" fill="#ECAD14"/>
<path d="M1309.67 863.48C1303.92 870.628 1296.77 876.533 1288.67 880.838C1236.13 909.571 1197.13 957.955 1180.2 1015.4C1175.5 1032.27 1164.45 1046.66 1149.37 1055.56C1134.29 1064.46 1116.35 1067.19 1099.3 1063.15C1082.25 1059.12 1067.43 1048.65 1057.92 1033.94C1048.41 1019.22 1044.97 1001.4 1048.31 984.213C1051.6 965.484 1051.16 946.289 1047.02 927.726C1042.88 909.163 1035.13 891.596 1024.19 876.029C1014.38 861.982 1009.39 845.13 1009.97 828.007C1010.55 810.884 1016.68 794.417 1027.43 781.081C1038.18 767.745 1052.97 758.261 1069.58 754.057C1086.19 749.852 1103.72 751.154 1119.53 757.765C1137.1 765.152 1155.95 769.001 1175.01 769.091C1194.06 769.181 1212.95 765.51 1230.58 758.29C1244.51 752.402 1260.01 751.343 1274.62 755.28C1289.23 759.217 1302.11 767.925 1311.2 780.018C1320.29 792.111 1325.08 806.895 1324.8 822.019C1324.53 837.142 1319.2 851.736 1309.67 863.48Z" fill="#ECAD14"/>
<path d="M1194.06 610.648C1189.85 615.867 1184.19 619.721 1177.79 621.722C1171.39 623.722 1164.54 623.781 1158.11 621.889C1151.68 619.997 1145.95 616.241 1141.64 611.094C1137.34 605.947 1134.67 599.642 1133.95 592.975C1133.23 586.308 1134.51 579.579 1137.62 573.639C1140.72 567.699 1145.52 562.815 1151.41 559.604C1157.29 556.393 1164 554.999 1170.68 555.6C1177.36 556.2 1183.71 558.767 1188.93 562.977C1195.93 568.621 1200.41 576.815 1201.37 585.755C1202.33 594.695 1199.7 603.649 1194.06 610.648Z" fill="#ECAD14"/>
<path d="M950.563 588.503C954.77 583.284 960.432 579.43 966.831 577.429C973.23 575.429 980.08 575.37 986.514 577.262C992.948 579.154 998.678 582.91 1002.98 588.057C1007.28 593.204 1009.96 599.509 1010.67 606.176C1011.39 612.843 1010.12 619.572 1007.01 625.512C1003.9 631.452 999.1 636.336 993.215 639.547C987.33 642.758 980.624 644.152 973.944 643.551C967.265 642.951 960.913 640.384 955.692 636.174C948.69 630.53 944.216 622.336 943.254 613.396C942.292 604.456 944.921 595.502 950.563 588.503Z" fill="#ECAD14"/>
<path d="M822.928 746.833C827.135 741.614 832.796 737.76 839.196 735.759C845.595 733.758 852.445 733.7 858.879 735.592C865.313 737.483 871.043 741.24 875.343 746.387C879.644 751.533 882.322 757.839 883.039 764.506C883.757 771.173 882.481 777.902 879.373 783.842C876.265 789.782 871.465 794.666 865.58 797.877C859.695 801.088 852.988 802.482 846.309 801.881C839.63 801.281 833.278 798.714 828.056 794.504C821.054 788.86 816.58 780.666 815.619 771.726C814.657 762.786 817.286 753.832 822.928 746.833Z" fill="#ECAD14"/>
<path d="M896.245 980.084C892.038 985.303 886.376 989.157 879.977 991.158C873.578 993.159 866.728 993.217 860.294 991.325C853.859 989.433 848.13 985.677 843.829 980.53C839.529 975.383 836.851 969.078 836.133 962.411C835.416 955.744 836.692 949.015 839.8 943.075C842.907 937.135 847.707 932.251 853.593 929.04C859.478 925.829 866.184 924.435 872.863 925.036C879.543 925.636 885.895 928.203 891.116 932.413C898.118 938.057 902.592 946.251 903.554 955.191C904.516 964.131 901.887 973.085 896.245 980.084Z" fill="#ECAD14"/>
<defs>
<filter id="filter0_f_1496_1102" x="128.553" y="176.739" width="635.65" height="635.651" filterUnits="userSpaceOnUse" color-interpolation-filters="sRGB">
<feFlood flood-opacity="0" result="BackgroundImageFix"/>
<feBlend mode="normal" in="SourceGraphic" in2="BackgroundImageFix" result="shape"/>
<feGaussianBlur stdDeviation="115" result="effect1_foregroundBlur_1496_1102"/>
</filter>
<filter id="filter1_f_1496_1102" x="0" y="0" width="575.65" height="575.651" filterUnits="userSpaceOnUse" color-interpolation-filters="sRGB">
<feFlood flood-opacity="0" result="BackgroundImageFix"/>
<feBlend mode="normal" in="SourceGraphic" in2="BackgroundImageFix" result="shape"/>
<feGaussianBlur stdDeviation="100" result="effect1_foregroundBlur_1496_1102"/>
</filter>
</defs>
</svg>
