<svg width="32" height="32" viewBox="0 0 32 32" fill="none" xmlns="http://www.w3.org/2000/svg">
<path d="M8.39039 21.3009C9.60415 19.2643 11.4746 17.8039 13.6574 17.1116C12.5777 16.4877 11.7388 15.5371 11.2696 14.4057C10.8004 13.2743 10.7268 12.0247 11.0601 10.8488C11.3935 9.67284 12.1153 8.63563 13.1147 7.89641C14.1142 7.15719 15.336 6.75684 16.5926 6.75684C17.8492 6.75684 19.071 7.15719 20.0705 7.89641C21.07 8.63563 21.7918 9.67284 22.1251 10.8488C22.4584 12.0247 22.3848 13.2743 21.9156 14.4057C21.4464 15.5371 20.6075 16.4877 19.5278 17.1116C21.7106 17.8031 23.5811 19.2635 24.7948 21.3009C24.8394 21.3714 24.8689 21.4498 24.8817 21.5315C24.8945 21.6132 24.8903 21.6965 24.8693 21.7766C24.8484 21.8567 24.8112 21.9319 24.7598 21.9978C24.7084 22.0637 24.644 22.119 24.5702 22.1603C24.4965 22.2016 24.415 22.2282 24.3305 22.2385C24.2461 22.2487 24.1603 22.2425 24.0784 22.22C23.9964 22.1976 23.9199 22.1595 23.8534 22.1079C23.7869 22.0563 23.7317 21.9924 23.6911 21.9197C22.1896 19.4012 19.5358 17.8975 16.5926 17.8975C13.6495 17.8975 10.9956 19.4012 9.49417 21.9197C9.45354 21.9924 9.39834 22.0563 9.33182 22.1079C9.2653 22.1595 9.18882 22.1976 9.10687 22.22C9.02493 22.2425 8.93918 22.2487 8.8547 22.2385C8.77022 22.2282 8.68872 22.2016 8.61499 22.1603C8.54127 22.119 8.47682 22.0637 8.42545 21.9978C8.37408 21.9319 8.33683 21.8567 8.3159 21.7766C8.29496 21.6965 8.29077 21.6132 8.30356 21.5315C8.31636 21.4498 8.34588 21.3714 8.39039 21.3009ZM21.0555 12.3282C21.0555 11.4715 20.7938 10.634 20.3034 9.92167C19.813 9.20934 19.116 8.65414 18.3005 8.32628C17.485 7.99843 16.5877 7.91265 15.7219 8.07979C14.8562 8.24693 14.061 8.65948 13.4369 9.26527C12.8127 9.87106 12.3876 10.6429 12.2154 11.4832C12.0432 12.3234 12.1316 13.1944 12.4694 13.9859C12.8072 14.7774 13.3792 15.4539 14.1131 15.9299C14.8471 16.4058 15.7099 16.6599 16.5926 16.6599C17.7759 16.6586 18.9103 16.2019 19.747 15.3898C20.5837 14.5777 21.0543 13.4767 21.0555 12.3282Z" fill="#67A6B0"/>
</svg>
